<svg width="33" height="33" viewBox="0 0 33 33" fill="none" xmlns="http://www.w3.org/2000/svg">
<rect x="0.653076" y="0.750977" width="32" height="32" rx="8.52398" fill="black"/>
<path d="M18.3682 5.54443H15.3098C15.1392 5.54443 14.9871 5.65211 14.9305 5.81305L13.687 9.34581C12.3958 13.0139 15.7514 16.6245 19.5041 15.605L27.426 13.4528C27.6691 13.3868 27.7924 13.116 27.6824 12.8893L26.4379 10.3223C26.356 10.1534 26.1681 10.0637 25.9853 10.106L18.19 11.9112C17.5842 12.0515 17.0551 11.4805 17.2411 10.8871L18.7519 6.06685C18.8331 5.80783 18.6396 5.54443 18.3682 5.54443Z" fill="#D9D9D9"/>
<path d="M18.3682 5.54443H15.3098C15.1392 5.54443 14.9871 5.65211 14.9305 5.81305L13.687 9.34581C12.3958 13.0139 15.7514 16.6245 19.5041 15.605L27.426 13.4528C27.6691 13.3868 27.7924 13.116 27.6824 12.8893L26.4379 10.3223C26.356 10.1534 26.1681 10.0637 25.9853 10.106L18.19 11.9112C17.5842 12.0515 17.0551 11.4805 17.2411 10.8871L18.7519 6.06685C18.8331 5.80783 18.6396 5.54443 18.3682 5.54443Z" fill="url(#paint0_linear_979_2644)"/>
<path d="M25.9305 24.2768L27.5043 21.6544C27.5921 21.5081 27.578 21.3223 27.4691 21.1909L25.0798 18.3068C22.599 15.3122 17.7764 16.3316 16.7196 20.074L14.4886 27.9741C14.4202 28.2165 14.589 28.4615 14.8399 28.4839L17.6814 28.7376C17.8683 28.7543 18.042 28.6395 18.0997 28.4609L20.563 20.8479C20.7544 20.2562 21.5163 20.0964 21.9294 20.5612L25.2851 24.337C25.4655 24.5399 25.7909 24.5095 25.9305 24.2768Z" fill="#D9D9D9"/>
<path d="M25.9305 24.2768L27.5043 21.6544C27.5921 21.5081 27.578 21.3223 27.4691 21.1909L25.0798 18.3068C22.599 15.3122 17.7764 16.3316 16.7196 20.074L14.4886 27.9741C14.4202 28.2165 14.589 28.4615 14.8399 28.4839L17.6814 28.7376C17.8683 28.7543 18.042 28.6395 18.0997 28.4609L20.563 20.8479C20.7544 20.2562 21.5163 20.0964 21.9294 20.5612L25.2851 24.337C25.4655 24.5399 25.7909 24.5095 25.9305 24.2768Z" fill="url(#paint1_linear_979_2644)"/>
<path d="M6.34151 21.682L7.94151 24.2885C8.03077 24.4339 8.20208 24.5071 8.36888 24.4712L12.0302 23.6828C15.8318 22.8642 17.1534 18.1155 14.3213 15.4507L8.34267 9.82525C8.15919 9.65261 7.86396 9.68926 7.72826 9.90153L6.19171 12.3051C6.09062 12.4633 6.11237 12.6703 6.24412 12.804L11.8607 18.503C12.2973 18.946 12.0874 19.6956 11.4844 19.8475L6.58598 21.0817C6.32276 21.148 6.1995 21.4507 6.34151 21.682Z" fill="#D9D9D9"/>
<path d="M6.34151 21.682L7.94151 24.2885C8.03077 24.4339 8.20208 24.5071 8.36888 24.4712L12.0302 23.6828C15.8318 22.8642 17.1534 18.1155 14.3213 15.4507L8.34267 9.82525C8.15919 9.65261 7.86396 9.68926 7.72826 9.90153L6.19171 12.3051C6.09062 12.4633 6.11237 12.6703 6.24412 12.804L11.8607 18.503C12.2973 18.946 12.0874 19.6956 11.4844 19.8475L6.58598 21.0817C6.32276 21.148 6.1995 21.4507 6.34151 21.682Z" fill="url(#paint2_linear_979_2644)"/>
<defs>
<linearGradient id="paint0_linear_979_2644" x1="22.0119" y1="7.31508" x2="22.0119" y2="18.0147" gradientUnits="userSpaceOnUse">
<stop stop-color="#FF7700"/>
<stop offset="1" stop-color="#FF0084"/>
</linearGradient>
<linearGradient id="paint1_linear_979_2644" x1="22.5374" y1="26.49" x2="13.3629" y2="20.9843" gradientUnits="userSpaceOnUse">
<stop stop-color="#FF7700"/>
<stop offset="1" stop-color="#FF0084"/>
</linearGradient>
<linearGradient id="paint2_linear_979_2644" x1="5.94429" y1="17.6504" x2="15.0629" y2="12.0528" gradientUnits="userSpaceOnUse">
<stop stop-color="#FF7700"/>
<stop offset="1" stop-color="#FF0084"/>
</linearGradient>
</defs>
</svg>
